<?xml version="1.0" encoding="UTF-8" standalone="no"?>
<!DOCTYPE svg PUBLIC "-//W3C//DTD SVG 1.1//EN" "http://www.w3.org/Graphics/SVG/1.1/DTD/svg11.dtd">
<svg width="100%" height="100%" viewBox="0 0 40 40" version="1.1" xmlns="http://www.w3.org/2000/svg" xmlns:xlink="http://www.w3.org/1999/xlink" xml:space="preserve" style="fill-rule:evenodd;clip-rule:evenodd;stroke-linejoin:round;stroke-miterlimit:1.41421;">
    <g transform="matrix(1,0,0,1,-10,-10)">
        <g transform="matrix(0.356519,0,0,0.356519,-197.851,-204.624)">
            <path d="M639.098,602C670.059,602 695.196,627.137 695.196,658.098C695.196,689.059 670.059,714.196 639.098,714.196C608.137,714.196 583,689.059 583,658.098C583,627.137 608.137,602 639.098,602ZM654.56,636.32L654.56,623.81L643.326,623.763C630.858,623.763 628.025,633.102 628.025,639.066L628.025,647.406L620.812,647.406L620.812,660.294L628.025,660.294L628.025,696.966L643.191,696.966L643.191,660.294L653.201,660.294L654.526,647.418L643.192,647.418L643.192,639.833C643.192,636.988 645.072,636.32 646.409,636.32L654.56,636.32Z" style="fill:rgb(59,89,152);"/>
        </g>
    </g>
</svg>
