<?xml version="1.0" encoding="UTF-8" standalone="no"?>
<!DOCTYPE svg PUBLIC "-//W3C//DTD SVG 1.1//EN" "http://www.w3.org/Graphics/SVG/1.1/DTD/svg11.dtd">
<svg width="100%" height="100%" viewBox="0 0 40 40" version="1.1" xmlns="http://www.w3.org/2000/svg" xmlns:xlink="http://www.w3.org/1999/xlink" xml:space="preserve" style="fill-rule:evenodd;clip-rule:evenodd;stroke-linejoin:round;stroke-miterlimit:1.41421;">
    <g transform="matrix(1,0,0,1,-60,-10)">
        <g transform="matrix(0.356519,0,0,0.356519,-176.729,-61.3038)">
            <path d="M720.099,200C751.06,200 776.197,225.137 776.197,256.098C776.197,287.059 751.06,312.196 720.099,312.196C689.138,312.196 664.001,287.059 664.001,256.098C664.001,225.137 689.138,200 720.099,200ZM754.461,240.316C752.057,241.382 749.471,242.103 746.759,242.425C749.528,240.766 751.653,238.141 752.656,235.008C750.065,236.545 747.194,237.66 744.141,238.261C741.695,235.656 738.21,234.028 734.351,234.028C726.947,234.028 720.942,240.033 720.942,247.437C720.942,248.488 721.061,249.511 721.291,250.493C710.147,249.934 700.266,244.596 693.652,236.481C692.498,238.461 691.836,240.766 691.836,243.223C691.836,247.874 694.205,251.98 697.801,254.384C695.604,254.315 693.535,253.712 691.728,252.705C691.727,252.762 691.727,252.819 691.727,252.875C691.727,259.372 696.351,264.791 702.484,266.022C701.36,266.33 700.173,266.493 698.952,266.493C698.086,266.493 697.247,266.41 696.429,266.254C698.135,271.58 703.086,275.457 708.955,275.566C704.365,279.163 698.584,281.306 692.3,281.306C691.22,281.306 690.15,281.243 689.103,281.118C695.034,284.924 702.084,287.143 709.656,287.143C734.32,287.143 747.808,266.711 747.808,248.99C747.808,248.409 747.795,247.83 747.769,247.256C750.391,245.366 752.664,243.005 754.461,240.316Z" style="fill:rgb(85,172,238);"/>
        </g>
    </g>
</svg>
