<?xml version="1.0" encoding="UTF-8" standalone="no"?>
<!DOCTYPE svg PUBLIC "-//W3C//DTD SVG 1.1//EN" "http://www.w3.org/Graphics/SVG/1.1/DTD/svg11.dtd">
<svg width="100%" height="100%" viewBox="0 0 40 40" version="1.1" xmlns="http://www.w3.org/2000/svg" xmlns:xlink="http://www.w3.org/1999/xlink" xml:space="preserve" style="fill-rule:evenodd;clip-rule:evenodd;stroke-linejoin:round;stroke-miterlimit:1.41421;">
    <g transform="matrix(1,0,0,1,-160,-10)">
        <g transform="matrix(0.137307,0,0,0.137307,160,-37.5081)">
            <path d="M145.659,346C226.109,346 291.319,411.219 291.319,491.66C291.319,572.101 226.109,637.319 145.659,637.319C65.209,637.319 0,572.1 0,491.66C0,411.22 65.21,346 145.659,346ZM197.642,482.638L93.677,482.638C77.145,482.638 63.753,495.52 63.753,511.388L63.753,535.695C63.753,551.572 77.145,564.454 93.677,564.454L197.641,564.454C214.164,564.454 227.565,551.572 227.565,535.695L227.565,511.388C227.566,495.519 214.165,482.638 197.642,482.638ZM136.583,545.909L126.997,545.909L126.997,541.958C125.213,543.415 123.383,544.534 121.453,545.281C119.55,546.064 117.693,546.437 115.891,546.437C113.67,546.437 112.013,545.9 110.884,544.817C109.773,543.752 109.2,542.15 109.2,540.01L109.2,509.95L118.786,509.95L118.786,537.525C118.786,538.381 118.986,538.982 119.369,539.364C119.788,539.755 120.452,539.928 121.345,539.928C122.037,539.928 122.947,539.682 124.021,539.172C125.104,538.671 126.097,538.034 126.998,537.242L126.998,509.94L136.584,509.94C136.583,509.94 136.583,545.885 136.583,545.909ZM155.2,545.936L145.632,545.936L145.632,500.818L155.2,500.818L155.2,515.357C156.493,514.356 157.849,513.573 159.26,513.045C160.707,512.508 162.164,512.253 163.63,512.253C166.625,512.253 168.91,512.954 170.485,514.365C172.078,515.785 172.87,517.87 172.87,520.592C172.87,520.591 172.87,539.063 172.87,539.063C172.87,541.421 172.123,543.214 170.64,544.48C169.174,545.745 167.008,546.364 164.213,546.364C162.347,546.364 160.69,546.127 159.251,545.645C157.804,545.163 156.438,544.416 155.2,543.387L155.2,545.936ZM209.34,528.912L191.679,528.912L191.679,535.412C191.679,537.224 191.97,538.48 192.58,539.19C193.199,539.891 194.246,540.237 195.712,540.237C197.26,540.237 198.316,539.937 198.935,539.345C199.536,538.744 199.864,537.442 199.864,535.403L199.864,533.837L209.359,533.837L209.359,535.603C209.359,539.135 208.221,541.794 205.872,543.587C203.56,545.371 200.1,546.263 195.503,546.263C191.361,546.263 188.102,545.316 185.726,543.423C183.359,541.548 182.157,538.926 182.157,535.612L182.157,520.117C182.157,517.14 183.468,514.682 186.09,512.798C188.703,510.923 192.053,509.985 196.195,509.985C200.419,509.985 203.669,510.859 205.945,512.598C208.212,514.337 209.341,516.849 209.341,520.109C209.34,520.109 209.34,528.912 209.34,528.912ZM99.95,545.381L91.056,545.381L91.056,507.309L81.861,507.309L81.861,500.818L109.145,500.818C109.144,500.818 109.144,507.309 109.144,507.309L99.95,507.309L99.95,545.381ZM159.16,517.532L157.148,517.86L155.191,518.871L155.191,539.609C155.956,540.146 156.711,540.556 157.44,540.783L159.725,541.138C160.89,541.138 161.737,540.91 162.283,540.428C162.82,539.964 163.102,539.199 163.102,538.152L163.102,520.955C163.102,519.817 162.783,518.97 162.11,518.397C161.418,517.824 160.444,517.532 159.16,517.532ZM196.222,516.021C194.747,516.021 193.7,516.331 193.054,516.968C192.417,517.578 192.107,518.616 192.107,520.063L192.107,523.541L200.273,523.541L200.273,520.063C200.273,518.616 199.936,517.587 199.299,516.968C198.67,516.331 197.624,516.021 196.222,516.021ZM109.736,426.177L109.044,426.177L101.998,400.668L91.046,400.668L103.991,439.186C103.992,439.186 103.992,464.458 103.992,464.458L114.853,464.458L114.853,437.993L127.498,400.668L116.455,400.668L109.736,426.177ZM142.145,464.357C146.751,464.357 150.357,462.891 152.997,460.807C155.619,458.713 156.93,455.864 156.93,452.204L156.93,430.118C156.93,426.868 155.592,424.182 152.924,422.116C150.238,420.049 146.806,419.021 142.6,419.021C138.003,419.021 134.325,419.995 131.603,421.952C128.872,423.918 127.506,426.54 127.506,429.863L127.506,452.021C127.506,455.662 128.835,458.539 131.493,460.697C134.151,462.855 137.712,464.357 142.145,464.357ZM172.625,464.33C174.245,464.33 175.893,463.401 177.605,462.473C179.335,461.526 180.982,460.142 182.567,458.34L182.567,463.247L191.17,463.247L191.17,418.957L182.567,418.957L182.567,452.577C181.766,453.533 180.874,454.325 179.918,454.953C178.944,455.572 178.143,455.891 177.515,455.891C176.705,455.891 176.113,455.663 175.767,455.181C175.403,454.717 175.203,453.961 175.203,452.923L175.203,418.966L166.618,418.966L166.618,455.973C166.618,458.613 167.137,460.589 168.129,461.9C169.138,463.219 170.631,464.33 172.625,464.33ZM137.33,430.938C137.33,430.1 137.767,429.427 138.632,428.89C139.506,428.371 140.635,428.116 142.019,428.116C143.53,428.116 144.75,428.371 145.67,428.89C146.599,429.427 147.054,430.101 147.054,430.938L147.054,451.931C147.054,452.969 146.599,453.788 145.688,454.38C144.778,454.963 143.558,455.263 142.019,455.263C140.517,455.263 139.352,454.981 138.541,454.389C137.74,453.815 137.33,452.996 137.33,451.931L137.33,430.938L137.33,430.938Z" style="fill:rgb(196,48,43);"/>
        </g>
    </g>
</svg>
